<svg xmlns="http://www.w3.org/2000/svg" xmlns:xlink="http://www.w3.org/1999/xlink" width="1280" height="1300" viewBox="0 0 1280 1300">
  <defs>
    <clipPath id="clip-Blog">
      <rect width="1280" height="1300"/>
    </clipPath>
  </defs>
  <g id="Blog" clip-path="url(#clip-Blog)">
    <rect width="1280" height="1300" fill="#fff"/>
    <path id="Path_669" data-name="Path 669" d="M213,0c35.276-176.217,213,95.811,213,214,0,73.395,36.676,172.755-93.052,176.867S257.585,428,213,428C95.363,428,0,332.189,0,214S177.724,176.217,213,0Z" transform="matrix(0.829, 0.559, -0.559, 0.829, -7.448, 102.499)" fill="#3480e3" opacity="0.59"/>
    <path id="Path_665" data-name="Path 665" d="M180.559,1.081c99.192.321,180.063,135.905,180.63,302.835S281.8,605.908,182.613,605.587,2.55,469.681,1.982,302.752,81.367.759,180.559,1.081Z" transform="matrix(0.682, 0.731, -0.731, 0.682, 98.55, -560.291)" fill="#e2efff"/>
    <path id="Path_666" data-name="Path 666" d="M180.559,1.081c99.192.321,180.063,135.905,180.63,302.835S281.8,605.908,182.613,605.587,2.55,469.681,1.982,302.752,81.367.759,180.559,1.081Z" transform="matrix(0.682, 0.731, -0.731, 0.682, -55.451, -227.291)" fill="#e2efff"/>
    <path id="Path_670" data-name="Path 670" d="M213,0c35.276-176.217,213,95.811,213,214,0,73.395,36.676,172.755-93.052,176.867S257.585,428,213,428C95.363,428,0,332.189,0,214S177.724,176.217,213,0Z" transform="translate(1234.262 934.389) rotate(-130)" fill="#e53167" opacity="0.59"/>
    <g id="Group_69" data-name="Group 69" transform="translate(955.872 2770.43) rotate(-167)">
      <path id="Path_655" data-name="Path 655" d="M201.323-.905C312.76-1.2,402.6,142.317,402,319.657S310.555,641,199.118,641.3-2.164,498.077-1.555,320.737,89.886-.607,201.323-.905Z" transform="translate(1333.482 1652.43) rotate(-151)" fill="#e2efff"/>
      <path id="Path_661" data-name="Path 661" d="M156.9-.819c88.94.9,162.368,114.26,164.006,253.2S251.774,503.232,162.834,502.334.466,388.074-1.172,249.132,67.963-1.717,156.9-.819Z" transform="translate(1355.961 1598.11) rotate(-151)" fill="#b2d4ff"/>
      <ellipse id="Ellipse_81" data-name="Ellipse 81" cx="121.5" cy="214" rx="121.5" ry="214" transform="translate(1341.026 1562.533) rotate(-148)" fill="#3480e3"/>
    </g>
    <g id="Group_70" data-name="Group 70" transform="matrix(0.819, 0.574, -0.574, 0.819, 845.271, -540.813)">
      <path id="Path_655-2" data-name="Path 655" d="M201.323-.905C312.76-1.2,402.6,142.317,402,319.657S310.555,641,199.118,641.3-2.164,498.077-1.555,320.737,89.886-.607,201.323-.905Z" transform="translate(1333.482 1652.43) rotate(-151)" fill="#e2efff"/>
      <path id="Path_661-2" data-name="Path 661" d="M156.9-.819c88.94.9,162.368,114.26,164.006,253.2S251.774,503.232,162.834,502.334.466,388.074-1.172,249.132,67.963-1.717,156.9-.819Z" transform="translate(1355.961 1598.11) rotate(-151)" fill="#b2d4ff"/>
      <ellipse id="Ellipse_81-2" data-name="Ellipse 81" cx="121.5" cy="214" rx="121.5" ry="214" transform="translate(1341.026 1562.533) rotate(-148)" fill="#3480e3"/>
    </g>
  </g>
</svg>
