<svg xmlns="http://www.w3.org/2000/svg" xmlns:xlink="http://www.w3.org/1999/xlink" width="1280" height="2500" viewBox="0 0 1280 2500">
  <defs>
    <style>
      .cls-1 {
        clip-path: url(#clip-home);
      }

      .cls-2 {
        fill: #e2efff;
      }

      .cls-3 {
        fill: #b2d4ff;
      }

      .cls-4 {
        fill: #3480e3;
      }

      .cls-5 {
        fill: #fff;
      }
    </style>
    <clipPath id="clip-home">
      <rect width="1280" height="2500"/>
    </clipPath>
  </defs>
  <g id="home" class="cls-1">
    <rect class="cls-5" width="1280" height="2500"/>
    <path id="Path_660" data-name="Path 660" class="cls-2" d="M184.65.681c102.6.693,186.793,129.954,188.05,288.711s-80.9,286.893-183.5,286.2S2.409,445.637,1.152,286.88,82.05-.013,184.65.681Z" transform="translate(-182.686 372.055) rotate(1)"/>
    <path id="Path_659" data-name="Path 659" class="cls-3" d="M152.363.772C238.677,2.318,310.935,98.678,313.756,216S248.892,427.172,162.577,425.626,4,327.719,1.184,210.4,66.048-.775,152.363.772Z" transform="matrix(0.998, -0.07, 0.07, 0.998, -196.786, 445.544)"/>
    <ellipse id="Ellipse_81" data-name="Ellipse 81" class="cls-4" cx="121.5" cy="214" rx="121.5" ry="214" transform="matrix(1, -0.017, 0.017, 1, -195.892, 442.34)"/>
    <path id="Path_657" data-name="Path 657" class="cls-2" d="M180.559,1.081c99.192.321,180.063,135.905,180.63,302.835S281.8,605.908,182.613,605.587,2.55,469.681,1.982,302.752,81.367.759,180.559,1.081Z" transform="matrix(0.682, 0.731, -0.731, 0.682, -55.45, -227.291)"/>
    <g id="Group_61" data-name="Group 61">
      <path id="Path_655" data-name="Path 655" class="cls-2" d="M201.323-.905C312.76-1.2,402.6,142.317,402,319.657S310.555,641,199.118,641.3-2.164,498.077-1.555,320.737,89.886-.607,201.323-.905Z" transform="translate(1333.482 1652.43) rotate(-151)"/>
      <path id="Path_661" data-name="Path 661" class="cls-3" d="M156.9-.819c88.94.9,162.368,114.26,164.006,253.2S251.774,503.232,162.834,502.334.466,388.074-1.172,249.132,67.963-1.717,156.9-.819Z" transform="translate(1355.961 1598.11) rotate(-151)"/>
      <ellipse id="Ellipse_81-2" data-name="Ellipse 81" class="cls-4" cx="121.5" cy="214" rx="121.5" ry="214" transform="translate(1341.026 1562.533) rotate(-148)"/>
    </g>
    <g id="Group_62" data-name="Group 62" transform="translate(1863.888 1564.602) rotate(131)">
      <path id="Path_655-2" data-name="Path 655" class="cls-2" d="M201.323-.905C312.76-1.2,402.6,142.317,402,319.657S310.555,641,199.118,641.3-2.164,498.077-1.555,320.737,89.886-.607,201.323-.905Z" transform="translate(1333.482 1652.43) rotate(-151)"/>
      <path id="Path_661-2" data-name="Path 661" class="cls-3" d="M156.9-.819c88.94.9,162.368,114.26,164.006,253.2S251.774,503.232,162.834,502.334.466,388.074-1.172,249.132,67.963-1.717,156.9-.819Z" transform="translate(1355.961 1598.11) rotate(-151)"/>
      <ellipse id="Ellipse_81-3" data-name="Ellipse 81" class="cls-4" cx="121.5" cy="214" rx="121.5" ry="214" transform="translate(1341.026 1562.533) rotate(-148)"/>
    </g>
    <g id="Group_69" data-name="Group 69" transform="translate(922.65 4013.43) rotate(-167)">
      <path id="Path_655-3" data-name="Path 655" class="cls-2" d="M201.323-.905C312.76-1.2,402.6,142.317,402,319.657S310.555,641,199.118,641.3-2.164,498.077-1.555,320.737,89.886-.607,201.323-.905Z" transform="translate(1333.482 1652.43) rotate(-151)"/>
      <path id="Path_661-3" data-name="Path 661" class="cls-3" d="M156.9-.819c88.94.9,162.368,114.26,164.006,253.2S251.774,503.232,162.834,502.334.466,388.074-1.172,249.132,67.963-1.717,156.9-.819Z" transform="translate(1355.961 1598.11) rotate(-151)"/>
      <ellipse id="Ellipse_81-4" data-name="Ellipse 81" class="cls-4" cx="121.5" cy="214" rx="121.5" ry="214" transform="translate(1341.026 1562.533) rotate(-148)"/>
    </g>
    <g id="Group_70" data-name="Group 70" transform="matrix(0.819, 0.574, -0.574, 0.819, 812.049, 656.187)">
      <path id="Path_655-4" data-name="Path 655" class="cls-2" d="M201.323-.905C312.76-1.2,402.6,142.317,402,319.657S310.555,641,199.118,641.3-2.164,498.077-1.555,320.737,89.886-.607,201.323-.905Z" transform="translate(1333.482 1652.43) rotate(-151)"/>
      <path id="Path_661-4" data-name="Path 661" class="cls-3" d="M156.9-.819c88.94.9,162.368,114.26,164.006,253.2S251.774,503.232,162.834,502.334.466,388.074-1.172,249.132,67.963-1.717,156.9-.819Z" transform="translate(1355.961 1598.11) rotate(-151)"/>
      <ellipse id="Ellipse_81-5" data-name="Ellipse 81" class="cls-4" cx="121.5" cy="214" rx="121.5" ry="214" transform="translate(1341.026 1562.533) rotate(-148)"/>
    </g>
  </g>
</svg>
